<svg xmlns="http://www.w3.org/2000/svg" width="51.2" height="51.2" viewBox="0 0 48.000002 48.000001"><path d="M73.214 32.5h48v48h-48z" fill="none"/><g fill="#c1b19a"><path d="M0 48h48V0H0z" opacity=".1" fill="none"/><path d="M0 48h48V0H0z" fill="none"/><path d="M2 6v6c3.32 0 6-2.68 6-6H2zm10 0c0 5.52-4.48 10-10 10v4c7.74 0 14-6.26 14-14h-4zm8 0v4h22v28H6V24H2v14c0 2.2 1.8 4 4 4h36c2.2 0 4-1.8 4-4V10c0-2.2-1.8-4-4-4H20zm9.36 12.322l-7.503 10.362-5.359-6.916-7.502 10.34h30.008l-9.645-13.786z"/></g></svg>
